<svg xmlns="http://www.w3.org/2000/svg" viewBox="0 0 160.119 42.504"><title>Ativo 11</title><g id="Camada_2" data-name="Camada 2"><g id="Camada_1-2" data-name="Camada 1"><g id="Camada_2-2" data-name="Camada 2"><g id="Camada_1-2-2" data-name="Camada 1-2"><g style="isolation:isolate"><text transform="translate(39.861 33.063) scale(1.069 1)" style="isolation:isolate;font-size:37.763668060302734px;fill:#f4f4f4;font-family:MyriadPro-Semibold, Myriad Pro;font-weight:600">IBE </text><text transform="translate(102.917 33.063) scale(1.069 1)" style="isolation:isolate;font-size:37.763668060302734px;fill:#fff;font-family:MyriadPro-Semibold, Myriad Pro;font-weight:600">PIX</text></g><path d="M8.9,16.879l-.586.493a2.774,2.774,0,0,1-.9-1.64C8.251,15.775,8.531,16.387,8.9,16.879Z" style="fill:#e8e8e8"/><path d="M8.942,16.93l8.033,7.534,3.974-5.293c-.247-.186-.361-.34-.444-.325-3.313.59-5.56-.9-7.747-3.3C9.1,11.518,5.073,7.822,1.22,3.97.8,3.55.2,3.253,0,2.374c3.692.068,7.323-.605,10.659,1.73,1.986,1.389,4.316,2.276,6.413,3.521,1.062.63,1.772.56,2.431-.449a2.862,2.862,0,0,1,.428-.459c1.356-1.308,2.8-2.611-.657-4.211H37.39c-.35,1.417-1.385,2.552-2.036,3.871-.055.11-.21.171-.318.254-1.367-1.849-2.882-.172-4.3-.106a32.515,32.515,0,0,0-4.725.879c-.134.026-.263.081-.793.25,1.649,1.65,3.105,3.268,4.737,4.682,1.141.987,1.11,1.719.366,2.971C26.408,21.9,22.606,28.555,18.615,35.449L8.356,17.423C8.293,16.952,8.444,16.735,8.942,16.93Z" style="fill:#f9f9f9"/><path d="M29.05,3.653c1.133-.414,1.941.486,3.366.205C30.849,5.034,29.935,4.8,29.05,3.653Z" style="fill:#0f97db"/><path d="M30.081,3.333h0c-.51-.025-.628-.37-.228-.78A16.716,16.716,0,0,1,33.32,0c.294.882-.637,1.8-1.622,2.69A2.566,2.566,0,0,1,30.081,3.333Z" style="fill:#fff"/></g></g></g></g></svg>