<svg width="255" height="85" viewBox="0 0 255 85" fill="none" xmlns="http://www.w3.org/2000/svg">
    <path
        d="M23.5332 25.2079L47 18L40.1528 42.5347L47 67L23.5332 59.8614L0 67L6.91372 42.5347L0 18L23.5332 25.2079Z"
        fill="#B9FF66" />
    <path
        d="M83.672 63V18.2H90.584V37.4H109.4V18.2H116.312V63H109.4V43.672H90.584V63H83.672ZM125.864 63V31.448H132.456V63H125.864ZM129.192 27.16C127.912 27.16 126.824 26.7547 125.928 25.944C125.075 25.0907 124.648 24.0027 124.648 22.68C124.648 21.3573 125.075 20.2907 125.928 19.48C126.824 18.6267 127.912 18.2 129.192 18.2C130.515 18.2 131.603 18.6267 132.456 19.48C133.309 20.2907 133.736 21.3573 133.736 22.68C133.736 24.0027 133.309 25.0907 132.456 25.944C131.603 26.7547 130.515 27.16 129.192 27.16ZM142.239 75.8V31.448H148.703V35.992H149.727C150.538 34.584 151.754 33.3253 153.375 32.216C155.039 31.1067 157.407 30.552 160.479 30.552C163.124 30.552 165.535 31.192 167.711 32.472C169.93 33.752 171.7 35.608 173.023 38.04C174.388 40.4293 175.071 43.3307 175.071 46.744V47.704C175.071 51.1173 174.41 54.04 173.087 56.472C171.764 58.8613 169.994 60.696 167.775 61.976C165.556 63.256 163.124 63.896 160.479 63.896C158.431 63.896 156.703 63.64 155.295 63.128C153.887 62.616 152.756 61.976 151.903 61.208C151.05 60.3973 150.367 59.5653 149.855 58.712H148.831V75.8H142.239ZM158.559 58.136C161.46 58.136 163.828 57.2187 165.663 55.384C167.498 53.5493 168.415 50.9253 168.415 47.512V46.936C168.415 43.5653 167.476 40.9627 165.599 39.128C163.764 37.2933 161.418 36.376 158.559 36.376C155.743 36.376 153.396 37.2933 151.519 39.128C149.684 40.9627 148.767 43.5653 148.767 46.936V47.512C148.767 50.9253 149.684 53.5493 151.519 55.384C153.396 57.2187 155.743 58.136 158.559 58.136ZM193.031 63.896C190.77 63.896 188.743 63.512 186.951 62.744C185.202 61.976 183.794 60.8453 182.727 59.352C181.703 57.8587 181.191 56.0453 181.191 53.912C181.191 51.736 181.703 49.944 182.727 48.536C183.794 47.0853 185.223 45.9973 187.015 45.272C188.85 44.5467 190.919 44.184 193.223 44.184H202.823V42.136C202.823 40.3013 202.268 38.8293 201.159 37.72C200.05 36.6107 198.343 36.056 196.039 36.056C193.778 36.056 192.05 36.5893 190.855 37.656C189.66 38.7227 188.871 40.1093 188.487 41.816L182.343 39.832C182.855 38.1253 183.666 36.5893 184.775 35.224C185.927 33.816 187.442 32.6853 189.319 31.832C191.196 30.9787 193.458 30.552 196.103 30.552C200.199 30.552 203.42 31.5973 205.767 33.688C208.114 35.7787 209.287 38.744 209.287 42.584V55.576C209.287 56.856 209.884 57.496 211.079 57.496H213.767V63H208.839C207.346 63 206.13 62.616 205.191 61.848C204.252 61.08 203.783 60.0347 203.783 58.712V58.52H202.823C202.482 59.16 201.97 59.9067 201.287 60.76C200.604 61.6133 199.602 62.36 198.279 63C196.956 63.5973 195.207 63.896 193.031 63.896ZM193.991 58.456C196.636 58.456 198.77 57.7093 200.391 56.216C202.012 54.68 202.823 52.5893 202.823 49.944V49.304H193.607C191.858 49.304 190.45 49.688 189.383 50.456C188.316 51.1813 187.783 52.2693 187.783 53.72C187.783 55.1707 188.338 56.3227 189.447 57.176C190.556 58.0293 192.071 58.456 193.991 58.456ZM223.012 75.8V70.04H240.612C241.807 70.04 242.404 69.4 242.404 68.12V58.392H241.38C240.996 59.2453 240.399 60.0773 239.588 60.888C238.82 61.656 237.775 62.296 236.452 62.808C235.129 63.32 233.465 63.576 231.46 63.576C229.071 63.576 226.937 63.0427 225.06 61.976C223.183 60.9093 221.711 59.3947 220.644 57.432C219.577 55.4693 219.044 53.144 219.044 50.456V31.448H225.636V49.944C225.636 52.6747 226.319 54.7013 227.684 56.024C229.049 57.304 230.948 57.944 233.38 57.944C236.068 57.944 238.223 57.048 239.844 55.256C241.508 53.464 242.34 50.8613 242.34 47.448V31.448H248.932V69.464C248.932 71.384 248.356 72.92 247.204 74.072C246.095 75.224 244.559 75.8 242.596 75.8H223.012Z"
        fill="#B9FF66" />
</svg>
    