<?xml version="1.0" encoding="utf-8"?>
<!-- Generator: Adobe Illustrator 24.0.1, SVG Export Plug-In . SVG Version: 6.00 Build 0)  -->
<svg version="1.1" id="Camada_1" xmlns="http://www.w3.org/2000/svg" xmlns:xlink="http://www.w3.org/1999/xlink" x="0px" y="0px"
	 viewBox="0 0 278 40" style="enable-background:new 0 0 278 40;" xml:space="preserve">
<style type="text/css">
	.st0{fill:#E8E8E8;}
	.st1{fill:#F9F9F9;}
	.st2{fill:#0F97DB;}
	.st3{fill:#FFFFFF;}
	.st4{font-family:'ArialMT';}
	.st5{font-size:44.3702px;}
</style>
<g>
	<path class="st0" d="M28.5,19c-0.2,0.2-0.4,0.4-0.7,0.6c-0.5-0.4-0.8-1-1-1.8C27.7,17.8,28,18.5,28.5,19z"/>
	<g>
		<path class="st1" d="M28.5,19.1c3,2.8,6,5.6,9.1,8.5c1.5-2,3-4,4.5-6c-0.3-0.2-0.4-0.4-0.5-0.4c-3.7,0.7-6.3-1-8.7-3.7
			c-4.1-4.5-8.7-8.7-13-13c-0.5-0.5-1.1-0.8-1.4-1.8c4.2,0.1,8.3-0.7,12,1.9c2.2,1.6,4.9,2.6,7.2,4c1.2,0.7,2,0.6,2.7-0.5
			c0.1-0.2,0.3-0.4,0.5-0.5c1.5-1.5,3.2-2.9-0.7-4.7c7.3,0,13.8,0,20.4,0c-0.4,1.6-1.6,2.9-2.3,4.4c-0.1,0.1-0.2,0.2-0.4,0.3
			c-1.5-2.1-3.2-0.2-4.8-0.1c-1.8,0.1-3.6,0.6-5.3,1c-0.2,0-0.3,0.1-0.9,0.3c1.9,1.9,3.5,3.7,5.3,5.3c1.3,1.1,1.3,1.9,0.4,3.3
			c-4.4,7.4-8.7,14.9-13.2,22.7c-4-7-7.8-13.6-11.6-20.3C27.8,19.1,27.9,18.9,28.5,19.1z"/>
		<path class="st2" d="M51.2,4.1c1.3-0.5,2.2,0.5,3.8,0.2C53.2,5.7,52.2,5.4,51.2,4.1z"/>
		<path class="st3" d="M52.3,3.8L52.3,3.8c-0.6,0-0.7-0.4-0.3-0.9C53,1.9,54.2,1,56,0c0.3,1-0.7,2-1.8,3C53.7,3.5,52.9,3.8,52.3,3.8
			z"/>
	</g>
</g>
<text transform="matrix(1.04 0 0 1 63.3917 38.64)" class="st3 st4 st5">IBE PIX</text>
</svg>
