<svg width="278" height="40" viewBox="0 0 278 40" fill="none" xmlns="http://www.w3.org/2000/svg">
<g clip-path="url(#clip0_0_268)">
<path d="M20.5615 -0.358887L0.202637 20L20.5615 40.3589H40.9164V20H20.5615L40.9164 -0.358887H20.5615Z" fill="#06D6C6"/>
<path d="M65.4202 -0.358887H45.0613V20H65.4202L45.0613 40.3589H65.4202L85.775 20L65.4202 -0.358887Z" fill="#06D6C6"/>
<path d="M107.882 27.4338V39.4667H97.4387V0.533325H121.31C129.194 0.533325 136.494 2.87744 136.494 14.1722C136.494 25.4669 129.036 27.4419 121.31 27.4419L107.882 27.4338ZM121.63 9.10272H107.882V19.1889H121.63C124.132 19.1889 126.209 18.2318 126.209 14.1803C126.209 10.1288 124.132 9.10272 121.63 9.10272Z" fill="white"/>
<path d="M152.16 0.533325V39.4667H141.717V0.533325H152.16Z" fill="white"/>
<path d="M177.094 26.8944L167.665 39.4667H156.366L171.286 19.2213L157.165 0.533325H168.606L177.293 12.043L186.045 0.533325H197.343L183.116 19.7161L198.09 39.4667H186.633L177.094 26.8944Z" fill="white"/>
<path d="M235.117 39.4667H215.139C203.629 39.4667 197.875 36.1614 197.875 20.0203C197.875 3.87915 203.629 0.533325 215.139 0.533325H235.011V9.11084H215.192C209.968 9.11084 208.159 11.2441 208.159 20.0365C208.159 28.8289 209.968 30.9054 215.192 30.9054H225.955V19.2294H235.117V39.4667Z" fill="white"/>
<path d="M277.797 39.4667H257.828C246.322 39.4667 240.567 36.1614 240.567 20.0203C240.567 3.87915 246.31 0.533325 257.828 0.533325H277.7V9.11084H257.872C252.649 9.11084 250.836 11.2441 250.836 20.0365C250.836 28.8289 252.649 30.9054 257.872 30.9054H268.632V19.2294H277.797V39.4667Z" fill="white"/>
</g>
<defs>
<clipPath id="clip0_0_268">
<rect width="278" height="40" fill="white"/>
</clipPath>
</defs>
</svg>
